<svg width="32" height="32" viewBox="0 0 32 32" fill="none" xmlns="http://www.w3.org/2000/svg">
<path d="M31.0001 17.3167C30.7379 20.1537 29.6732 22.8573 27.9305 25.1113C26.1878 27.3653 23.8392 29.0763 21.1596 30.0442C18.4799 31.0121 15.5801 31.1969 12.7992 30.5768C10.0184 29.9568 7.47174 28.5576 5.45712 26.543C3.44251 24.5283 2.04331 21.9816 1.42326 19.2008C0.803206 16.42 0.98794 13.5201 1.95585 10.8405C2.92375 8.16085 4.6348 5.81228 6.88877 4.06959C9.14274 2.3269 11.8464 1.26218 14.6834 1C13.0224 3.24711 12.2232 6.01575 12.431 8.80236C12.6388 11.589 13.8398 14.2084 15.8158 16.1843C17.7917 18.1602 20.4111 19.3613 23.1977 19.5691C25.9843 19.7769 28.753 18.9776 31.0001 17.3167V17.3167Z" stroke="black" stroke-width="2" stroke-linecap="round" stroke-linejoin="round"/>
</svg>
